<?xml version="1.0" encoding="utf-8" ?><svg xmlns="http://www.w3.org/2000/svg" xmlns:xlink="http://www.w3.org/1999/xlink" width="200" height="200" viewBox="0 0 200 200"><path fill="#1F2227" d="M36.2731 42.6332C39.0427 41.2854 43.5666 36.9536 45.9829 34.877C69.8115 14.3978 103.321 9.85682 131.865 22.8063C137.078 25.1711 142.724 29.3955 147.793 31.2555C151.899 32.8349 151.842 34.8252 152.624 35.1608C154.819 36.6831 158.226 40.9529 159.983 43.0838C169.258 54.338 176.102 68.4432 178.726 82.8855C182.038 100.268 179.764 118.252 172.232 134.264C171.423 135.987 168.04 143.097 166.67 144.096C165.121 147.724 161.706 151.373 158.976 154.234C149.711 163.948 138.768 171.701 126.272 176.726C108.267 184.095 88.0701 183.998 70.1372 176.456C61.7196 172.867 45.5137 163.277 40.4026 155.621C36.6049 151.796 33.1734 146.597 30.3183 142.089C28.29 139.085 25.7742 134.071 24.0862 130.757C23.2142 128.979 21.9579 126.673 20.8047 125.093L20.2745 123.67C19.35 118.944 18.261 115.22 17.6829 110.24C16.0124 95.8501 18.1669 82.0485 22.961 68.4981C23.7801 66.1145 24.734 63.7793 25.818 61.5038C26.6628 59.7555 28.5134 56.4056 28.9877 54.7108C29.7908 51.3637 28.5397 47.5244 29.1603 44.18C29.7826 40.8273 34.0598 42.0693 36.2731 42.6332ZM150.182 42.4538L150.584 42.8956C151.262 42.5943 151.488 42.5134 152.21 42.3436L152.822 42.5082C152.659 40.7577 153.262 37.543 152.315 35.9692C152.244 39.0448 153.119 40.7971 150.323 42.3755L150.182 42.4538Z"/><path fill="#595D70" fill-opacity="0.98431373" d="M152.315 35.9692C153.262 37.543 152.659 40.7577 152.822 42.5082L152.21 42.3436C151.488 42.5134 151.262 42.5943 150.584 42.8956L150.182 42.4538L150.323 42.3755C153.119 40.7971 152.244 39.0448 152.315 35.9692Z"/><path fill="#595D70" d="M67.9757 52.334C69.9513 51.5371 73.1129 49.4883 75.1635 48.4123C80.7659 45.4725 87.9698 42.4508 94.241 41.6255C94.2573 41.6723 94.4205 42.1418 94.4205 42.1418C99.6631 44.7823 105.297 48.8853 111.278 49.3402L111.84 49.619C111.992 50.7284 110.674 53.5551 110.291 54.7838C106.624 54.6527 102.67 54.6956 98.9813 54.7619C97.1035 57.1821 95.6223 59.7264 93.3213 61.7112L93.2003 61.8652C91.3514 64.1777 87.4876 66.2988 86.1292 68.3882C84.8854 70.3013 83.8911 74.7314 82.6651 77.1016C80.3752 81.5291 78.0949 85.9146 75.7211 90.299C75.2004 91.2607 72.5658 95.5787 72.3557 96.2499C72.5585 99.424 72.0618 101.493 72.5715 104.982C76.0344 102.954 79.8933 101.006 83.2361 98.9678C81.4452 102.83 77.7616 111.766 76.6958 115.716C83.3552 113.765 91.4755 109.543 97.8207 106.42C94.1312 115.538 91.9351 126.006 87.9392 135.104C87.3248 136.502 86.6528 138.202 86.142 139.638C87.3676 139.398 95.8358 130.956 98.7442 131.271C93.0374 138.706 90.9249 148.639 87.3588 156.744C85.5427 159.895 83.3586 168.971 82.8069 169.707C77.8021 166.834 73.5635 164.679 68.6589 161.449L65.9937 159.998C66.0544 163.476 65.8604 167.109 65.7829 170.609C58.5376 164.835 52.3887 158.416 50.7783 149.073C48.4176 150.933 43.012 154.21 40.4026 155.621C36.6049 151.796 33.1734 146.597 30.3183 142.089C28.29 139.085 25.7742 134.071 24.0862 130.757C23.2142 128.979 21.9579 126.673 20.8047 125.093L20.2745 123.67L21.5354 122.746C24.4426 118.674 28.8262 115.071 32.3736 111.582C33.4116 110.561 38.2351 106.782 38.6481 105.981L38.3388 105.669C38.4734 105.6 43.4207 104.981 44.3329 104.73C43.3915 104.028 41.3739 104.227 40.1535 104.235C38.2414 104.782 31.1286 104.091 28.7272 104.166C28.4115 104.176 27.7102 103.777 27.4199 103.582C32.5591 98.7245 39.0719 93.3337 44.4468 88.563C44.4418 88.0301 41.7857 83.5993 41.3162 82.7874C35.2488 72.3251 31.4293 61.0952 29.8846 49.1097C29.4762 45.9407 28.4684 41.5658 33.2192 43.0482C36.2319 43.9882 39.3406 44.9022 42.3752 45.7489C50.843 48.1918 59.3801 50.3877 67.9757 52.334Z"/><path fill="#7B8DB1" d="M67.9757 52.334C69.9513 51.5371 73.1129 49.4883 75.1635 48.4123C80.7659 45.4725 87.9698 42.4508 94.241 41.6255C94.2573 41.6723 94.4205 42.1418 94.4205 42.1418C99.6631 44.7823 105.297 48.8853 111.278 49.3402L111.84 49.619C111.992 50.7284 110.674 53.5551 110.291 54.7838C106.624 54.6527 102.67 54.6956 98.9813 54.7619C97.1035 57.1821 95.6223 59.7264 93.3213 61.7112L93.2003 61.8652C91.3514 64.1777 87.4876 66.2988 86.1292 68.3882C84.8854 70.3013 83.8911 74.7314 82.6651 77.1016C80.3752 81.5291 78.0949 85.9146 75.7211 90.299C75.2004 91.2607 72.5658 95.5787 72.3557 96.2499C72.5585 99.424 72.0618 101.493 72.5715 104.982C71.6088 106.252 59.9437 112.805 57.7036 114.184C59.4934 105.543 70.2296 82.4649 75.3834 76.0189C71.7169 78.6852 61.7599 83.4282 57.2945 85.7922C60.291 79.2973 65.611 74.6765 67.3758 66.8162C65.8269 66.7519 65.2123 66.7526 63.7645 66.1876C59.2754 64.6011 53.8505 63.0231 49.518 61.2762C47.4914 61.1009 46.6362 60.8309 44.7297 60.088C47.3095 64.427 49.1519 67.5125 52.6786 71.2011C54.0108 72.5944 56.7539 75.0007 57.7921 76.2535C54.8651 76.2251 53.3339 76.1617 50.4575 75.8579C51.768 77.251 58.0176 84.0455 56.6419 85.6341C55.0208 85.8983 49.8073 82.7828 48.4456 81.8081C48.3538 81.7425 48.2629 81.6756 48.173 81.6074C46.6827 83.3844 46.2401 86.2419 46.5321 88.4516C47.1219 92.9151 46.9601 96.5904 46.5274 101.072C45.3226 102.384 47.2299 103.734 44.3329 104.73C43.3915 104.028 41.3739 104.227 40.1535 104.235C38.2414 104.782 31.1286 104.091 28.7272 104.166C28.4115 104.176 27.7102 103.777 27.4199 103.582C32.5591 98.7245 39.0719 93.3337 44.4468 88.563C44.4418 88.0301 41.7857 83.5993 41.3162 82.7874C35.2488 72.3251 31.4293 61.0952 29.8846 49.1097C29.4762 45.9407 28.4684 41.5658 33.2192 43.0482C36.2319 43.9882 39.3406 44.9022 42.3752 45.7489C50.843 48.1918 59.3801 50.3877 67.9757 52.334Z"/><path fill="#FEFEFE" d="M48.173 81.6074C44.1398 76.8071 40.3589 69.6685 38.28 63.729C37.4861 61.4606 34.365 51.3536 34.8916 49.5936C36.1164 48.9771 56.9597 54.6021 60.3195 54.7517C60.9317 54.779 65.0551 55.7135 65.8983 55.983L65.0955 56.9367C64.9205 58.4331 64.2439 65.2778 63.7645 66.1876C59.2754 64.6011 53.8505 63.0231 49.518 61.2762C47.4914 61.1009 46.6362 60.8309 44.7297 60.088C47.3095 64.427 49.1519 67.5125 52.6786 71.2011C54.0108 72.5944 56.7539 75.0007 57.7921 76.2535C54.8651 76.2251 53.3339 76.1617 50.4575 75.8579C51.768 77.251 58.0176 84.0455 56.6419 85.6341C55.0208 85.8983 49.8073 82.7828 48.4456 81.8081C48.3538 81.7425 48.2629 81.6756 48.173 81.6074Z"/><path fill="#BFC6DA" d="M49.518 61.2762C54.9213 59.738 59.557 58.888 65.0955 56.9367C64.9205 58.4331 64.2439 65.2778 63.7645 66.1876C59.2754 64.6011 53.8505 63.0231 49.518 61.2762Z"/><path fill="#020303" d="M111.278 49.3402L111.84 49.619C111.992 50.7284 110.674 53.5551 110.291 54.7838C106.624 54.6527 102.67 54.6956 98.9813 54.7619C97.1035 57.1821 95.6223 59.7264 93.3213 61.7112C92.9121 60.143 96.2174 53.8906 97.1381 52.2554C101.029 52.4586 105.683 52.0381 109.436 52.5453C109.972 51.4323 110.456 50.2517 111.278 49.3402Z"/><path fill="#6F768F" d="M65.8983 55.983C66.745 55.7887 66.4762 55.7235 67.1788 56.0494C67.9245 57.7087 67.4208 64.5729 67.3758 66.8162C65.8269 66.7519 65.2123 66.7526 63.7645 66.1876C64.2439 65.2778 64.9205 58.4331 65.0955 56.9367L65.8983 55.983Z"/><path fill="#8FBAE6" d="M44.4468 88.563C44.7595 89.3677 44.7543 89.0548 44.5872 89.8841L44.2061 90.2208L44.392 89.3633C42.9606 91.6142 42.2108 90.996 40.7433 92.3104C38.7803 94.0687 36.9089 96.0725 34.8748 97.8102C33.5505 98.9415 29.9099 100.988 30.2075 102.847C32.1494 104.876 38.9182 103.335 40.1535 104.235C38.2414 104.782 31.1286 104.091 28.7272 104.166C28.4115 104.176 27.7102 103.777 27.4199 103.582C32.5591 98.7245 39.0719 93.3337 44.4468 88.563Z"/><path fill="#7B8DB1" d="M86.142 139.638C87.3676 139.398 95.8358 130.956 98.7442 131.271C93.0374 138.706 90.9249 148.639 87.3588 156.744C85.5427 159.895 83.3586 168.971 82.8069 169.707C77.8021 166.834 73.5635 164.679 68.6589 161.449C69.8108 159.206 72.7491 156.574 74.544 154.629C78.3431 150.511 82.8843 146.1 85.877 141.352C85.8139 140.531 85.7739 140.369 86.142 139.638Z"/><defs><linearGradient id="gradient_0" gradientUnits="userSpaceOnUse" x1="48.909641" y1="112.14998" x2="22.028629" y2="118.8602"><stop offset="0" stop-color="#7981AC"/><stop offset="1" stop-color="#88BDF0"/></linearGradient></defs><path fill="url(#gradient_0)" d="M46.5274 101.072C47.1403 102.026 46.1972 102.849 46.6614 103.665C47.2902 103.656 48.1143 103.513 48.4927 103.855L47.8051 104.933C46.9071 104.982 47.2023 104.928 46.4162 105.544C45.8435 106.848 45.8368 110.385 44.7769 111.857C43.3671 113.814 40.7248 113.982 39.5521 116.213C38.3113 117.325 36.9753 118.337 35.7615 119.435L39.4181 118.128C41.8851 118.991 42.3286 117.678 44.5339 117.652L44.7703 118.449C43.6619 120.058 43.1562 120.973 42.2707 122.724C40.0951 123.625 34.2605 124.461 32.0141 124.18C30.9796 124.467 30.1318 124.686 29.0742 124.902L29.3478 125.34C28.638 126.599 25.2434 129.475 24.0862 130.757C23.2142 128.979 21.9579 126.673 20.8047 125.093L20.2745 123.67L21.5354 122.746C24.4426 118.674 28.8262 115.071 32.3736 111.582C33.4116 110.561 38.2351 106.782 38.6481 105.981L38.3388 105.669C38.4734 105.6 43.4207 104.981 44.3329 104.73C47.2299 103.734 45.3226 102.384 46.5274 101.072Z"/><path fill="#1F2227" d="M29.0742 124.902L29.3478 125.34C28.638 126.599 25.2434 129.475 24.0862 130.757C23.2142 128.979 21.9579 126.673 20.8047 125.093C23.8223 125.242 26.0215 125.312 29.0742 124.902Z"/><path fill="#C6E0F5" d="M21.5354 122.746C24.2349 123.42 30.3657 122.495 32.0141 124.18C30.9796 124.467 30.1318 124.686 29.0742 124.902C26.0215 125.312 23.8223 125.242 20.8047 125.093L20.2745 123.67L21.5354 122.746Z"/><defs><linearGradient id="gradient_1" gradientUnits="userSpaceOnUse" x1="41.656937" y1="132.01147" x2="24.774389" y2="132.32275"><stop offset="0" stop-color="#7481AA"/><stop offset="1" stop-color="#7E9CCF"/></linearGradient></defs><path fill="url(#gradient_1)" d="M32.0141 124.18C34.2605 124.461 40.0951 123.625 42.2707 122.724C41.5006 127.388 38.0854 128.626 35.0131 132.227C38.1294 131.638 40.739 130.502 43.6953 129.398L43.8608 129.585L43.9819 129.324L44.0551 129.419C43.0808 129.968 39.0465 131.302 38.6295 132.109C38.2427 132.857 38.9612 134.537 40.0143 135.008C41.8353 135.181 42.2139 133.728 43.426 132.954C44.4688 132.287 45.8149 131.635 46.926 131.051C45.3514 133.179 32.9208 139.248 30.3183 142.089C28.29 139.085 25.7742 134.071 24.0862 130.757C25.2434 129.475 28.638 126.599 29.3478 125.34L29.0742 124.902C30.1318 124.686 30.9796 124.467 32.0141 124.18Z"/><defs><linearGradient id="gradient_2" gradientUnits="userSpaceOnUse" x1="54.861931" y1="109.36672" x2="41.142319" y2="109.13335"><stop offset="0" stop-color="#6A6A88"/><stop offset="1" stop-color="#7B8BB2"/></linearGradient></defs><path fill="url(#gradient_2)" d="M47.8051 104.933C49.8995 105.421 54.0356 101.408 55.663 99.9779C55.5302 100.871 55.1269 103.583 54.8497 104.264C53.3354 107.983 47.5649 115.412 44.7703 118.449L44.5339 117.652C42.3286 117.678 41.8851 118.991 39.4181 118.128L35.7615 119.435C36.9753 118.337 38.3113 117.325 39.5521 116.213C40.7248 113.982 43.3671 113.814 44.7769 111.857C45.8368 110.385 45.8435 106.848 46.4162 105.544C47.2023 104.928 46.9071 104.982 47.8051 104.933Z"/><defs><linearGradient id="gradient_3" gradientUnits="userSpaceOnUse" x1="47.430401" y1="113.53791" x2="38.370144" y2="115.45142"><stop offset="0" stop-color="#62638C"/><stop offset="1" stop-color="#6A789A"/></linearGradient></defs><path fill="url(#gradient_3)" d="M39.5521 116.213C41.8347 114.969 45.3491 111.716 47.5154 111.281L47.68 111.411L47.601 111.653L47.6562 111.352L47.5083 111.331C47.4301 113.503 41.1173 117.13 39.4181 118.128L35.7615 119.435C36.9753 118.337 38.3113 117.325 39.5521 116.213Z"/><path fill="#FEFEFE" d="M117.267 47.44C120.828 45.3222 124.664 43.272 128.302 41.257C130.44 40.0729 133.904 38.0572 136.059 37.2107C139.099 40.3285 141.605 44.0445 144.878 47.1241C146.748 48.8841 149.115 49.3442 150.029 51.4142C148.228 52.0532 147.728 51.815 146.132 53.0398C146.713 58.8288 147.422 63.0097 144.11 67.972L143.007 70.2742C144.636 70.5355 146.625 70.6246 147.683 71.8932C148.279 73.9725 144.562 82.0325 143.416 84.1623C140.979 88.6897 137.655 90.7797 133.503 93.4406C131.894 95.6003 130.051 97.2311 128.256 99.2131C123.79 104.145 122.011 108.327 120.999 114.741C119.682 114.117 116.239 112.292 114.952 112.533C114.675 112.951 114.682 113.071 114.626 113.574C115.324 118.535 115.466 121.843 119.694 125.023C119.915 125.19 120.138 125.354 120.362 125.517C119.224 125.516 117.976 125.539 116.851 125.522C112.267 125.456 112.001 126.464 113.191 130.497C111.079 130.376 112.212 132.385 109.49 129.338L108.903 128.672C108.772 126.579 108.739 125.07 108.762 122.974C107.28 124.186 99.8182 130.818 98.7442 131.271C95.8358 130.956 87.3676 139.398 86.142 139.638C86.6528 138.202 87.3248 136.502 87.9392 135.104C91.9351 126.006 94.1312 115.538 97.8207 106.42C91.4755 109.543 83.3552 113.765 76.6958 115.716C77.7616 111.766 81.4452 102.83 83.2361 98.9678C79.8933 101.006 76.0344 102.954 72.5715 104.982C72.0618 101.493 72.5585 99.424 72.3557 96.2499C72.5658 95.5787 75.2004 91.2607 75.7211 90.299C78.0949 85.9146 80.3752 81.5291 82.6651 77.1016C83.8911 74.7314 84.8854 70.3013 86.1292 68.3882C87.4876 66.2988 91.3514 64.1777 93.2003 61.8652L93.3213 61.7112C95.6223 59.7264 97.1035 57.1821 98.9813 54.7619C102.67 54.6956 106.624 54.6527 110.291 54.7838C110.674 53.5551 111.992 50.7284 111.84 49.619L111.278 49.3402C105.297 48.8853 99.6631 44.7823 94.4205 42.1418C94.4205 42.1418 94.2573 41.6723 94.241 41.6255C98.4695 40.8957 102.084 40.3318 106.364 40.0878C109.269 41.8177 114.812 45.089 117.267 47.44Z"/><path fill="#BFC6DA" d="M143.007 70.2742C144.636 70.5355 146.625 70.6246 147.683 71.8932C148.279 73.9725 144.562 82.0325 143.416 84.1623C140.979 88.6897 137.655 90.7797 133.503 93.4406C131.894 95.6003 130.051 97.2311 128.256 99.2131C123.79 104.145 122.011 108.327 120.999 114.741C119.682 114.117 116.239 112.292 114.952 112.533C114.675 112.951 114.682 113.071 114.626 113.574C115.324 118.535 115.466 121.843 119.694 125.023C119.915 125.19 120.138 125.354 120.362 125.517C119.224 125.516 117.976 125.539 116.851 125.522C112.267 125.456 112.001 126.464 113.191 130.497C111.079 130.376 112.212 132.385 109.49 129.338L108.903 128.672C108.772 126.579 108.739 125.07 108.762 122.974C107.28 124.186 99.8182 130.818 98.7442 131.271C95.8358 130.956 87.3676 139.398 86.142 139.638C86.6528 138.202 87.3248 136.502 87.9392 135.104C91.9351 126.006 94.1312 115.538 97.8207 106.42C91.4755 109.543 83.3552 113.765 76.6958 115.716C77.7616 111.766 81.4452 102.83 83.2361 98.9678C79.8933 101.006 76.0344 102.954 72.5715 104.982C72.0618 101.493 72.5585 99.424 72.3557 96.2499C72.8023 96.172 76.6785 92.9991 77.6022 92.4465C83.4281 88.9611 89.5302 84.8466 95.6394 81.9277C94.3975 86.4044 93.4442 90.731 92.1092 95.3184C94.2097 94.7999 98.2912 92.9282 100.39 92.0213C104.974 90.0032 109.59 88.0574 114.235 86.1847C118.384 84.5737 122.566 83.048 126.778 81.6087C131.499 80.0008 136.734 78.6477 140.851 75.9329C137.617 75.9044 136.54 75.9093 133.361 76.5253C130.642 77.0522 124.89 79.6217 122.614 79.3516C122.893 79.0028 123.192 78.6708 123.51 78.3574C127.419 74.5078 137.348 70.2228 143.007 70.2742Z"/><path fill="#6F768F" d="M111.494 105.523C118.596 102.318 126.489 95.9548 133.503 93.4406C131.894 95.6003 130.051 97.2311 128.256 99.2131C123.79 104.145 122.011 108.327 120.999 114.741C119.682 114.117 116.239 112.292 114.952 112.533C114.675 112.951 114.682 113.071 114.626 113.574C114.214 110.389 113.913 107.693 111.494 105.523Z"/><path fill="#020303" d="M146.132 53.0398C146.713 58.8288 147.422 63.0097 144.11 67.972L143.007 70.2742C137.348 70.2228 127.419 74.5078 123.51 78.3574C123.192 78.6708 122.893 79.0028 122.614 79.3516C121.105 80.4778 117.51 80.8711 115.559 81.1891C115.471 78.8185 115.325 76.4504 115.122 74.0868C119.664 72.1117 123.815 68.9546 128.031 66.2911C132.08 63.733 136.595 61.1105 140.38 58.2318C142.228 56.8259 144.176 54.631 146.132 53.0398Z"/><path fill="#FEFEFE" d="M119.859 167.14C122.329 165.218 126.516 163.043 129.249 161.178C141.642 152.72 151.695 146.794 166.67 144.096C165.121 147.724 161.706 151.373 158.976 154.234C149.711 163.948 138.768 171.701 126.272 176.726C108.267 184.095 88.0701 183.998 70.1372 176.456C61.7196 172.867 45.5137 163.277 40.4026 155.621C43.012 154.21 48.4176 150.933 50.7783 149.073C52.3887 158.416 58.5376 164.835 65.7829 170.609C65.8604 167.109 66.0544 163.476 65.9937 159.998L68.6589 161.449C73.5635 164.679 77.8021 166.834 82.8069 169.707C88.0009 172.752 93.3039 175.531 98.5483 178.615C98.0172 175.715 97.5432 172.806 97.1264 169.888C101.814 170.429 106.257 171.253 110.9 171.993C112.97 172.324 117.135 173.045 119.07 173.004C119.574 173.32 119.874 173.584 120.474 173.533C121.041 172.466 120.012 169.085 119.859 167.14Z"/><path fill="#FEFEFE" d="M98.7442 131.271C99.8182 130.818 107.28 124.186 108.762 122.974C108.739 125.07 108.772 126.579 108.903 128.672L109.49 129.338C112.212 132.385 111.079 130.376 113.191 130.497C114.956 133.926 117.522 137.213 120.156 140.031C116.744 140.145 113.278 140.297 109.869 140.26C110.07 142.16 110.686 145.158 110.339 146.912C114.969 150.465 118.372 154.504 123.339 158.209C121.356 158.237 116.703 158.391 114.963 158.148C114.007 160.746 118.116 170.361 119.07 173.004C117.135 173.045 112.97 172.324 110.9 171.993C106.257 171.253 101.814 170.429 97.1264 169.888C97.5432 172.806 98.0172 175.715 98.5483 178.615C93.3039 175.531 88.0009 172.752 82.8069 169.707C83.3586 168.971 85.5427 159.895 87.3588 156.744C90.9249 148.639 93.0374 138.706 98.7442 131.271Z"/><path fill="#BFC6DA" d="M87.3588 156.744L87.9837 156.846C90.4582 155.054 98.1103 146.58 100.818 143.917C100.825 150.422 100.41 153.804 99.2359 160.238C102.29 159.823 113.157 157.198 114.963 158.148C114.007 160.746 118.116 170.361 119.07 173.004C117.135 173.045 112.97 172.324 110.9 171.993C106.257 171.253 101.814 170.429 97.1264 169.888C97.5432 172.806 98.0172 175.715 98.5483 178.615C93.3039 175.531 88.0009 172.752 82.8069 169.707C83.3586 168.971 85.5427 159.895 87.3588 156.744Z"/><path fill="#7B8DB1" d="M101.928 140.038C104.577 140.028 107.225 140.102 109.869 140.26C110.07 142.16 110.686 145.158 110.339 146.912C106.949 145.663 103.791 143.167 101.928 140.038Z"/><path fill="#BFC6DA" d="M150.029 51.4142C150.259 57.696 152.331 66.0507 144.11 67.972C147.422 63.0097 146.713 58.8288 146.132 53.0398C147.728 51.815 148.228 52.0532 150.029 51.4142Z"/><path fill="#020303" d="M147.793 31.2555C151.899 32.8349 151.842 34.8252 152.624 35.1608L152.315 35.9692C152.244 39.0448 153.119 40.7971 150.323 42.3755L150.182 42.4538C147.131 42.6959 146.293 40.9442 145.02 38.5561C148.154 37.1197 150.695 36.7374 149.081 32.9228C147.977 32.5451 148.114 32.262 147.793 31.2555Z"/><path fill="#FEFEFE" d="M140.713 35.3013C143.424 34.0551 146.089 33.0813 149.081 32.9228C150.695 36.7374 148.154 37.1197 145.02 38.5561L144.554 39.2254C143.417 37.2771 142.502 36.6487 140.713 35.3013Z"/><path fill="#C6E0F5" d="M27.4199 103.582C27.7102 103.777 28.4115 104.176 28.7272 104.166C31.1286 104.091 38.2414 104.782 40.1535 104.235C41.3739 104.227 43.3915 104.028 44.3329 104.73C43.4207 104.981 38.4734 105.6 38.3388 105.669C33.7948 106.156 29.2792 106.207 24.7138 106.179C25.5566 105.319 26.5397 104.419 27.4199 103.582Z"/><path fill="#BFC6DA" d="M145.02 38.5561C146.293 40.9442 147.131 42.6959 150.182 42.4538L150.584 42.8956C146.949 43.5577 146.15 42.2149 144.554 39.2254L145.02 38.5561Z"/><path fill="#444448" d="M152.822 42.5082C153.255 44.0481 152.884 47.7663 152.679 49.3853C152.105 47.744 152.401 44.1484 152.21 42.3436L152.822 42.5082Z"/></svg>